<?xml version="1.0" standalone="no"?>
<!DOCTYPE svg PUBLIC "-//W3C//DTD SVG 20010904//EN"
 "http://www.w3.org/TR/2001/REC-SVG-20010904/DTD/svg10.dtd">
<svg version="1.0" xmlns="http://www.w3.org/2000/svg"
 width="554.000000pt" height="554.000000pt" viewBox="0 0 554.000000 554.000000"
 preserveAspectRatio="xMidYMid meet">

<g transform="translate(0.000000,554.000000) scale(0.100000,-0.100000)"
fill="#000000" stroke="none">
<path d="M3784 3666 c-591 -159 -614 -166 -699 -209 -229 -113 -393 -319 -467
-585 -21 -74 -22 -101 -26 -609 l-3 -533 205 0 206 0 0 488 c0 537 3 563 62
674 38 72 137 167 210 201 44 21 599 177 629 177 5 0 9 -302 9 -770 l0 -770
205 0 205 0 0 1040 c0 572 -1 1040 -2 1039 -2 0 -242 -65 -534 -143z"/>
<path d="M1937 3175 c-325 -65 -582 -303 -684 -632 -27 -88 -27 -89 -31 -450
l-3 -363 205 0 206 0 0 318 c0 343 4 375 56 478 15 29 52 78 82 109 98 98 207
145 342 145 128 0 243 -46 335 -135 l45 -44 0 57 c0 88 26 240 54 319 14 39
26 75 26 80 0 18 -179 94 -268 113 -103 23 -263 25 -365 5z"/>
</g>
</svg>
